<svg width="24" height="24" viewBox="0 0 24 24" fill="none" xmlns="http://www.w3.org/2000/svg">
<path d="M17 15.75C16.1667 15.75 15.4583 15.4583 14.875 14.875C14.2917 14.2917 14 13.5833 14 12.75C14 11.9167 14.2917 11.2083 14.875 10.625C15.4583 10.0417 16.1667 9.75 17 9.75C17.8333 9.75 18.5417 10.0417 19.125 10.625C19.7083 11.2083 20 11.9167 20 12.75C20 13.5833 19.7083 14.2917 19.125 14.875C18.5417 15.4583 17.8333 15.75 17 15.75ZM17 14.25C17.425 14.25 17.7812 14.1062 18.0688 13.8188C18.3562 13.5312 18.5 13.175 18.5 12.75C18.5 12.325 18.3562 11.9688 18.0688 11.6813C17.7812 11.3938 17.425 11.25 17 11.25C16.575 11.25 16.2188 11.3938 15.9313 11.6813C15.6438 11.9688 15.5 12.325 15.5 12.75C15.5 13.175 15.6438 13.5312 15.9313 13.8188C16.2188 14.1062 16.575 14.25 17 14.25ZM11 22.75V19.85C11 19.5 11.0833 19.1708 11.25 18.8625C11.4167 18.5542 11.65 18.3083 11.95 18.125C12.4167 17.8417 12.9 17.5958 13.4 17.3875C13.9 17.1792 14.4167 17.0083 14.95 16.875L17 19.525L19.05 16.875C19.5833 17.0083 20.0958 17.1792 20.5875 17.3875C21.0792 17.5958 21.5583 17.8417 22.025 18.125C22.325 18.3083 22.5625 18.5542 22.7375 18.8625C22.9125 19.1708 23 19.5 23 19.85V22.75H11ZM12.5 21.25H16.425L14.375 18.6C14.0417 18.7333 13.7167 18.8792 13.4 19.0375C13.0833 19.1958 12.7833 19.3667 12.5 19.55V21.25ZM17.575 21.25H21.5V19.55C21.2167 19.3667 20.9208 19.1958 20.6125 19.0375C20.3042 18.8792 19.9833 18.7333 19.65 18.6L17.575 21.25ZM4.5 21C4.0875 21 3.73438 20.8531 3.44063 20.5594C3.14688 20.2656 3 19.9125 3 19.5V4.5C3 4.0875 3.14688 3.73438 3.44063 3.44063C3.73438 3.14688 4.0875 3 4.5 3H19.5C19.9125 3 20.2656 3.14688 20.5594 3.44063C20.8531 3.73438 21 4.0875 21 4.5V10.675C20.8167 10.3417 20.6 10.0333 20.35 9.75C20.1 9.46667 19.8167 9.21667 19.5 9V4.5H4.5V19.5H9.5V21H4.5ZM7 8.5H15.525C15.7583 8.41667 15.9987 8.35417 16.246 8.3125C16.4934 8.27083 16.7447 8.25 17 8.25V7H7V8.5ZM7 12.75H12.5C12.5 12.5 12.5208 12.2458 12.5625 11.9875C12.6042 11.7292 12.6667 11.4833 12.75 11.25H7V12.75ZM7 17H10.95C11.2333 16.7833 11.5333 16.6042 11.85 16.4625C12.1667 16.3208 12.4917 16.1833 12.825 16.05V15.5H7V17ZM4.5 19.5V4.5V9V8.25V19.5Z" fill="url(#paint0_linear_47_418)"/>
<defs>
<linearGradient id="paint0_linear_47_418" x1="13" y1="3" x2="13" y2="22.75" gradientUnits="userSpaceOnUse">
<stop stop-color="#1D81C4"/>
<stop offset="1" stop-color="#2594BD"/>
</linearGradient>
</defs>
</svg>
