<svg width="24" height="24" viewBox="0 0 24 24" fill="none" xmlns="http://www.w3.org/2000/svg">
<path d="M6.5 8.25C6.0875 8.25 5.73438 8.10313 5.44062 7.80938C5.14688 7.51562 5 7.1625 5 6.75V3.5C5 3.0875 5.14688 2.73438 5.44062 2.44063C5.73438 2.14688 6.0875 2 6.5 2H17.5C17.9125 2 18.2656 2.14688 18.5594 2.44063C18.8531 2.73438 19 3.0875 19 3.5V6.75C19 7.1625 18.8531 7.51562 18.5594 7.80938C18.2656 8.10313 17.9125 8.25 17.5 8.25H6.5ZM6.5 6.75H17.5V3.5H6.5V6.75ZM3.5 22C3.0875 22 2.73438 21.8531 2.44063 21.5594C2.14688 21.2656 2 20.9125 2 20.5V18.75H22V20.5C22 20.9125 21.8531 21.2656 21.5594 21.5594C21.2656 21.8531 20.9125 22 20.5 22H3.5ZM2 18L5.625 9.9C5.75833 9.63333 5.94669 9.41667 6.19007 9.25C6.43346 9.08333 6.6951 9 6.975 9H17.025C17.3049 9 17.5665 9.08333 17.8099 9.25C18.0533 9.41667 18.2417 9.63333 18.375 9.9L22 18H2ZM8.5 16H9.5C9.63333 16 9.75 15.95 9.85 15.85C9.95 15.75 10 15.6333 10 15.5C10 15.3667 9.95 15.25 9.85 15.15C9.75 15.05 9.63333 15 9.5 15H8.5C8.36667 15 8.25 15.05 8.15 15.15C8.05 15.25 8 15.3667 8 15.5C8 15.6333 8.05 15.75 8.15 15.85C8.25 15.95 8.36667 16 8.5 16ZM8.5 14H9.5C9.63333 14 9.75 13.95 9.85 13.85C9.95 13.75 10 13.6333 10 13.5C10 13.3667 9.95 13.25 9.85 13.15C9.75 13.05 9.63333 13 9.5 13H8.5C8.36667 13 8.25 13.05 8.15 13.15C8.05 13.25 8 13.3667 8 13.5C8 13.6333 8.05 13.75 8.15 13.85C8.25 13.95 8.36667 14 8.5 14ZM8.5 12H9.5C9.63333 12 9.75 11.95 9.85 11.85C9.95 11.75 10 11.6333 10 11.5C10 11.3667 9.95 11.25 9.85 11.15C9.75 11.05 9.63333 11 9.5 11H8.5C8.36667 11 8.25 11.05 8.15 11.15C8.05 11.25 8 11.3667 8 11.5C8 11.6333 8.05 11.75 8.15 11.85C8.25 11.95 8.36667 12 8.5 12ZM11.5 16H12.5C12.6333 16 12.75 15.95 12.85 15.85C12.95 15.75 13 15.6333 13 15.5C13 15.3667 12.95 15.25 12.85 15.15C12.75 15.05 12.6333 15 12.5 15H11.5C11.3667 15 11.25 15.05 11.15 15.15C11.05 15.25 11 15.3667 11 15.5C11 15.6333 11.05 15.75 11.15 15.85C11.25 15.95 11.3667 16 11.5 16ZM11.5 14H12.5C12.6333 14 12.75 13.95 12.85 13.85C12.95 13.75 13 13.6333 13 13.5C13 13.3667 12.95 13.25 12.85 13.15C12.75 13.05 12.6333 13 12.5 13H11.5C11.3667 13 11.25 13.05 11.15 13.15C11.05 13.25 11 13.3667 11 13.5C11 13.6333 11.05 13.75 11.15 13.85C11.25 13.95 11.3667 14 11.5 14ZM11.5 12H12.5C12.6333 12 12.75 11.95 12.85 11.85C12.95 11.75 13 11.6333 13 11.5C13 11.3667 12.95 11.25 12.85 11.15C12.75 11.05 12.6333 11 12.5 11H11.5C11.3667 11 11.25 11.05 11.15 11.15C11.05 11.25 11 11.3667 11 11.5C11 11.6333 11.05 11.75 11.15 11.85C11.25 11.95 11.3667 12 11.5 12ZM14.5 16H15.5C15.6333 16 15.75 15.95 15.85 15.85C15.95 15.75 16 15.6333 16 15.5C16 15.3667 15.95 15.25 15.85 15.15C15.75 15.05 15.6333 15 15.5 15H14.5C14.3667 15 14.25 15.05 14.15 15.15C14.05 15.25 14 15.3667 14 15.5C14 15.6333 14.05 15.75 14.15 15.85C14.25 15.95 14.3667 16 14.5 16ZM14.5 14H15.5C15.6333 14 15.75 13.95 15.85 13.85C15.95 13.75 16 13.6333 16 13.5C16 13.3667 15.95 13.25 15.85 13.15C15.75 13.05 15.6333 13 15.5 13H14.5C14.3667 13 14.25 13.05 14.15 13.15C14.05 13.25 14 13.3667 14 13.5C14 13.6333 14.05 13.75 14.15 13.85C14.25 13.95 14.3667 14 14.5 14ZM14.5 12H15.5C15.6333 12 15.75 11.95 15.85 11.85C15.95 11.75 16 11.6333 16 11.5C16 11.3667 15.95 11.25 15.85 11.15C15.75 11.05 15.6333 11 15.5 11H14.5C14.3667 11 14.25 11.05 14.15 11.15C14.05 11.25 14 11.3667 14 11.5C14 11.6333 14.05 11.75 14.15 11.85C14.25 11.95 14.3667 12 14.5 12Z" fill="url(#paint0_linear_49_478)"/>
<defs>
<linearGradient id="paint0_linear_49_478" x1="12" y1="2" x2="12" y2="22" gradientUnits="userSpaceOnUse">
<stop stop-color="#1D81C4"/>
<stop offset="1" stop-color="#2594BD"/>
</linearGradient>
</defs>
</svg>
