<svg width="24" height="24" viewBox="0 0 24 24" fill="none" xmlns="http://www.w3.org/2000/svg">
<path d="M11.25 18H12.75V17H14.25C14.4625 17 14.6406 16.9281 14.7844 16.7844C14.9281 16.6406 15 16.4625 15 16.25V13C15 12.7875 14.9281 12.6094 14.7844 12.4656C14.6406 12.3219 14.4625 12.25 14.25 12.25H10.5V10.5H15V9H12.75V8H11.25V9H9.75C9.5375 9 9.35938 9.07188 9.21563 9.21563C9.07188 9.35938 9 9.5375 9 9.75V13C9 13.2125 9.07188 13.3906 9.21563 13.5344C9.35938 13.6781 9.5375 13.75 9.75 13.75H13.5V15.5H9V17H11.25V18ZM5.5 22C5.1 22 4.75 21.85 4.45 21.55C4.15 21.25 4 20.9 4 20.5V3.5C4 3.1 4.15 2.75 4.45 2.45C4.75 2.15 5.1 2 5.5 2H14.025L20 7.975V20.5C20 20.9 19.85 21.25 19.55 21.55C19.25 21.85 18.9 22 18.5 22H5.5ZM5.5 20.5H18.5V8.65L13.35 3.5H5.5V20.5Z" fill="url(#paint0_linear_49_488)"/>
<defs>
<linearGradient id="paint0_linear_49_488" x1="12" y1="2" x2="12" y2="22" gradientUnits="userSpaceOnUse">
<stop stop-color="#1D81C4"/>
<stop offset="1" stop-color="#2594BD"/>
</linearGradient>
</defs>
</svg>
