<svg width="24" height="24" viewBox="0 0 24 24" fill="none" xmlns="http://www.w3.org/2000/svg">
<g clip-path="url(#clip0_49_504)">
<path d="M12 0.960022C5.90854 0.960022 0.959961 5.9086 0.959961 12C0.959961 13.958 1.49693 15.7852 2.39246 17.3803L0.977773 22.4306C0.955172 22.5115 0.954151 22.5968 0.974812 22.6781C0.995472 22.7595 1.03709 22.834 1.09552 22.8942C1.15395 22.9544 1.22715 22.9983 1.30782 23.0214C1.38849 23.0445 1.47381 23.0461 1.55527 23.026L6.82121 21.721C8.36858 22.547 10.1244 23.04 12 23.04C18.0914 23.04 23.04 18.0914 23.04 12C23.04 5.9086 18.0914 0.960022 12 0.960022ZM12 1.92002C17.5725 1.92002 22.08 6.42745 22.08 12C22.08 17.5726 17.5725 22.08 12 22.08C10.2134 22.08 8.54018 21.6142 7.08559 20.8003C6.9792 20.7409 6.85419 20.7241 6.7359 20.7535L2.12434 21.8963L3.3609 17.4844C3.37859 17.422 3.38348 17.3568 3.37526 17.2925C3.36704 17.2282 3.34589 17.1662 3.31309 17.1103C2.42909 15.6113 1.91996 13.8673 1.91996 12C1.91996 6.42745 6.42738 1.92002 12 1.92002ZM7.9884 6.24002C7.6807 6.24002 7.24126 6.3545 6.88027 6.74346C6.66345 6.97709 5.75996 7.85739 5.75996 9.40502C5.75996 11.0186 6.87903 12.4108 7.01434 12.5897H7.01527V12.5906C7.00244 12.5738 7.18702 12.8411 7.4334 13.1616C7.67978 13.4821 8.02431 13.903 8.45715 14.3588C9.32281 15.2702 10.5399 16.3236 12.0506 16.9678C12.7463 17.2641 13.2951 17.4429 13.7109 17.5735C14.4815 17.8154 15.1834 17.7786 15.7106 17.701C16.1052 17.6428 16.5393 17.4534 16.9687 17.1816C17.3982 16.9098 17.819 16.5719 18.0046 16.0585C18.1376 15.6904 18.2052 15.3502 18.2296 15.0703C18.2419 14.9304 18.2434 14.8069 18.2343 14.6925C18.2252 14.5782 18.235 14.4906 18.1284 14.3156C17.9049 13.9487 17.6518 13.9392 17.3878 13.8085C17.2411 13.7358 16.8233 13.5319 16.4043 13.3322C15.9858 13.1328 15.6234 12.9562 15.4003 12.8766C15.2593 12.8259 15.0871 12.7528 14.8387 12.781C14.5903 12.8091 14.345 12.9883 14.2021 13.2C14.0668 13.4007 13.5217 14.044 13.3556 14.2331C13.3534 14.2318 13.3678 14.2384 13.3021 14.206C13.0966 14.1043 12.8453 14.0178 12.4734 13.8216C12.1015 13.6254 11.6362 13.3357 11.1271 12.8869V12.886C10.3694 12.2189 9.83865 11.3814 9.67121 11.1C9.68249 11.0866 9.66987 11.1029 9.69371 11.0794L9.69465 11.0785C9.86578 10.9099 10.0174 10.7086 10.1456 10.561C10.3273 10.3516 10.4075 10.1671 10.4943 9.99471C10.6675 9.65111 10.5711 9.27302 10.4709 9.07408V9.07315C10.4778 9.08691 10.4167 8.9521 10.3509 8.79658C10.2849 8.64063 10.2008 8.43844 10.1109 8.22283C9.93118 7.79162 9.73053 7.30798 9.61121 7.02471V7.02377C9.47064 6.69011 9.28047 6.44974 9.03184 6.33377C8.7832 6.21781 8.56353 6.25077 8.55465 6.25033H8.55371C8.37628 6.24215 8.18158 6.24002 7.9884 6.24002ZM7.9884 7.20002C8.17346 7.20002 8.3559 7.20228 8.50871 7.2094C8.66591 7.21723 8.65613 7.21787 8.6259 7.20377C8.59518 7.18945 8.63686 7.1848 8.72621 7.3969C8.84305 7.67427 9.04468 8.15966 9.22496 8.59221C9.3151 8.80848 9.39946 9.01145 9.46684 9.17065C9.53421 9.32984 9.57072 9.41872 9.61309 9.50346V9.5044L9.61402 9.50533C9.65556 9.58729 9.65189 9.53482 9.63746 9.56346C9.53617 9.7645 9.52242 9.81386 9.41996 9.9319C9.26395 10.1116 9.10482 10.3121 9.02059 10.395C8.94689 10.4674 8.81392 10.5802 8.7309 10.801C8.64775 11.0221 8.68656 11.3254 8.81996 11.5519C8.99758 11.8534 9.58288 12.8061 10.4925 13.6069C11.0653 14.1119 11.599 14.4461 12.0253 14.671C12.4516 14.8958 12.7988 15.0272 12.8765 15.0656C13.061 15.157 13.2627 15.2279 13.4971 15.1997C13.7316 15.1716 13.9338 15.0293 14.0625 14.8838L14.0634 14.8828C14.2347 14.6887 14.7436 14.1076 14.9878 13.7494C14.9981 13.753 14.9947 13.7502 15.0759 13.7794V13.7803H15.0768C15.1139 13.7935 15.578 14.0013 15.9918 14.1985C16.4057 14.3956 16.8257 14.6006 16.9621 14.6681C17.1591 14.7656 17.2522 14.8291 17.2762 14.8294C17.2778 14.8716 17.2795 14.9174 17.2734 14.9869C17.2566 15.1797 17.205 15.4465 17.1018 15.7322C17.0513 15.8721 16.788 16.1605 16.4559 16.3706C16.1238 16.5808 15.7196 16.7292 15.57 16.7513C15.1199 16.8176 14.5856 16.8418 13.9987 16.6575C13.5918 16.5298 13.0844 16.3645 12.4275 16.0847C11.0951 15.5165 9.96264 14.5495 9.15371 13.6978C8.74924 13.272 8.42519 12.8756 8.19465 12.5756C7.96454 12.2763 7.86405 12.1205 7.78027 12.0103L7.77934 12.0094C7.63062 11.8127 6.71996 10.546 6.71996 9.40502C6.71996 8.19746 7.28084 7.72391 7.58434 7.3969C7.74367 7.22522 7.91786 7.20002 7.9884 7.20002Z" fill="url(#paint0_linear_49_504)"/>
</g>
<defs>
<linearGradient id="paint0_linear_49_504" x1="12" y1="0.960027" x2="12" y2="23.04" gradientUnits="userSpaceOnUse">
<stop stop-color="#1D81C4"/>
<stop offset="1" stop-color="#2594BD"/>
</linearGradient>
<clipPath id="clip0_49_504">
<rect width="24" height="24" fill="white"/>
</clipPath>
</defs>
</svg>
