<svg width="24" height="24" viewBox="0 0 24 24" fill="none" xmlns="http://www.w3.org/2000/svg">
<path d="M9.6 15.625L10.675 14.55L8.15 12L10.675 9.475L9.6 8.4L6 12.0125L9.6 15.625ZM14.4 15.625L18.025 12L14.425 8.4L13.35 9.475L15.875 12L13.325 14.55L14.4 15.625ZM4.5 21C4.0875 21 3.73438 20.8531 3.44063 20.5594C3.14688 20.2656 3 19.9125 3 19.5V4.5C3 4.0875 3.14688 3.73438 3.44063 3.44062C3.73438 3.14688 4.0875 3 4.5 3H9.625C9.70833 2.41667 9.975 1.9375 10.425 1.5625C10.875 1.1875 11.4 1 12 1C12.6 1 13.125 1.1875 13.575 1.5625C14.025 1.9375 14.2917 2.41667 14.375 3H19.5C19.9125 3 20.2656 3.14688 20.5594 3.44062C20.8531 3.73438 21 4.0875 21 4.5V19.5C21 19.9125 20.8531 20.2656 20.5594 20.5594C20.2656 20.8531 19.9125 21 19.5 21H4.5ZM4.5 19.5H19.5V4.5H4.5V19.5ZM12 4.075C12.2333 4.075 12.4375 3.9875 12.6125 3.8125C12.7875 3.6375 12.875 3.43333 12.875 3.2C12.875 2.96667 12.7875 2.7625 12.6125 2.5875C12.4375 2.4125 12.2333 2.325 12 2.325C11.7667 2.325 11.5625 2.4125 11.3875 2.5875C11.2125 2.7625 11.125 2.96667 11.125 3.2C11.125 3.43333 11.2125 3.6375 11.3875 3.8125C11.5625 3.9875 11.7667 4.075 12 4.075Z" fill="url(#paint0_linear_49_502)"/>
<defs>
<linearGradient id="paint0_linear_49_502" x1="12" y1="1" x2="12" y2="21" gradientUnits="userSpaceOnUse">
<stop stop-color="#1D81C4"/>
<stop offset="1" stop-color="#2594BD"/>
</linearGradient>
</defs>
</svg>
