<svg width="24" height="24" viewBox="0 0 24 24" fill="none" xmlns="http://www.w3.org/2000/svg">
<path d="M11.0125 11.5C9.97083 11.5 9.08333 11.1328 8.35 10.3984C7.61667 9.66407 7.25 8.78125 7.25 7.75C7.25 6.7 7.61718 5.8125 8.35155 5.0875C9.08593 4.3625 9.96875 4 11 4C12.05 4 12.9375 4.3625 13.6625 5.0875C14.3875 5.8125 14.75 6.69583 14.75 7.7375C14.75 8.77917 14.3875 9.66667 13.6625 10.4C12.9375 11.1333 12.0542 11.5 11.0125 11.5ZM11 10C11.6333 10 12.1667 9.77968 12.6 9.33905C13.0333 8.89843 13.25 8.36875 13.25 7.75C13.25 7.11667 13.0333 6.58333 12.6 6.15C12.1667 5.71667 11.6375 5.5 11.0125 5.5C10.3875 5.5 9.85417 5.71667 9.4125 6.15C8.97083 6.58333 8.75 7.1125 8.75 7.7375C8.75 8.3625 8.97032 8.89583 9.41095 9.3375C9.85157 9.77917 10.3812 10 11 10ZM22.45 23.5L18.95 20C18.5667 20.2833 18.1708 20.4792 17.7625 20.5875C17.3542 20.6958 16.937 20.75 16.5109 20.75C15.3273 20.75 14.3213 20.3365 13.4928 19.5096C12.6643 18.6826 12.25 17.6784 12.25 16.4971C12.25 15.3157 12.6635 14.3125 13.4904 13.4875C14.3174 12.6625 15.3216 12.25 16.5029 12.25C17.6843 12.25 18.6875 12.6643 19.5125 13.4928C20.3375 14.3213 20.75 15.3273 20.75 16.5109C20.75 16.937 20.6958 17.3542 20.5875 17.7625C20.4792 18.1708 20.2833 18.5667 20 18.95L23.5 22.45L22.45 23.5ZM16.5 19.25C17.2833 19.25 17.9375 18.9875 18.4625 18.4625C18.9875 17.9375 19.25 17.2833 19.25 16.5C19.25 15.7167 18.9875 15.0625 18.4625 14.5375C17.9375 14.0125 17.2833 13.75 16.5 13.75C15.7167 13.75 15.0625 14.0125 14.5375 14.5375C14.0125 15.0625 13.75 15.7167 13.75 16.5C13.75 17.2833 14.0125 17.9375 14.5375 18.4625C15.0625 18.9875 15.7167 19.25 16.5 19.25ZM3 20V17.65C3 17.0333 3.14583 16.5083 3.4375 16.075C3.72917 15.6417 4.15 15.2833 4.7 15C5.48333 14.6167 6.50417 14.2542 7.7625 13.9125C9.02083 13.5708 10.3 13.4417 11.6 13.525C11.4667 13.7417 11.3417 13.9792 11.225 14.2375C11.1083 14.4958 11.0167 14.75 10.95 15C9.65 14.9833 8.51667 15.1375 7.55 15.4625C6.58333 15.7875 5.83333 16.0833 5.3 16.35C5.06667 16.4833 4.875 16.6625 4.725 16.8875C4.575 17.1125 4.5 17.3667 4.5 17.65V18.5H10.95C11.1333 18.7833 11.3 19.0458 11.45 19.2875C11.6 19.5292 11.7667 19.7667 11.95 20H3Z" fill="url(#paint0_linear_49_506)"/>
<defs>
<linearGradient id="paint0_linear_49_506" x1="13.25" y1="4" x2="13.25" y2="23.5" gradientUnits="userSpaceOnUse">
<stop stop-color="#1D81C4"/>
<stop offset="1" stop-color="#2594BD"/>
</linearGradient>
</defs>
</svg>
