<svg width="24" height="24" viewBox="0 0 24 24" fill="none" xmlns="http://www.w3.org/2000/svg">
<path d="M12 9.5C10.9 9.5 10 9.15 9.3 8.45C8.6 7.75 8.25 6.85 8.25 5.75C8.25 4.65 8.6 3.75 9.3 3.05C10 2.35 10.9 2 12 2C13.1 2 14 2.35 14.7 3.05C15.4 3.75 15.75 4.65 15.75 5.75C15.75 6.85 15.4 7.75 14.7 8.45C14 9.15 13.1 9.5 12 9.5ZM12 8C12.65 8 13.1875 7.7875 13.6125 7.3625C14.0375 6.9375 14.25 6.4 14.25 5.75C14.25 5.1 14.0375 4.5625 13.6125 4.1375C13.1875 3.7125 12.65 3.5 12 3.5C11.35 3.5 10.8125 3.7125 10.3875 4.1375C9.9625 4.5625 9.75 5.1 9.75 5.75C9.75 6.4 9.9625 6.9375 10.3875 7.3625C10.8125 7.7875 11.35 8 12 8ZM4 22V15.4C4 14.7667 4.15833 14.225 4.475 13.775C4.79167 13.325 5.2 12.9825 5.7 12.7476C6.55 12.3659 7.50417 12.0208 8.5625 11.7125C9.62083 11.4042 10.7676 11.25 12.0027 11.25C13.2378 11.25 14.3795 11.4042 15.4277 11.7125C16.4759 12.0208 17.425 12.3667 18.275 12.75C18.7917 12.9833 19.2083 13.325 19.525 13.775C19.8417 14.225 20 14.7667 20 15.4V20.5C20 20.9 19.85 21.25 19.55 21.55C19.25 21.85 18.9 22 18.5 22H9.75C9.05303 22 8.46213 21.7573 7.97728 21.2718C7.49243 20.7863 7.25 20.1947 7.25 19.4968C7.25 18.7989 7.49243 18.2083 7.97728 17.725C8.46213 17.2417 9.05303 17 9.75 17H12.7L14.5 13C14.0667 12.9167 13.6375 12.8542 13.2125 12.8125C12.7875 12.7708 12.3824 12.75 11.9972 12.75C10.7914 12.75 9.71961 12.8875 8.78177 13.1625C7.84392 13.4375 7.01667 13.75 6.3 14.1C6.06667 14.2167 5.875 14.3938 5.725 14.6313C5.575 14.8688 5.5 15.125 5.5 15.4V22H4ZM9.75 20.5H11.1L12.025 18.5H9.75C9.48333 18.5 9.25 18.6 9.05 18.8C8.85 19 8.75 19.2333 8.75 19.5C8.75 19.7667 8.85 20 9.05 20.2C9.25 20.4 9.48333 20.5 9.75 20.5ZM12.75 20.5H18.5V15.4C18.5 15.125 18.4208 14.8688 18.2625 14.6313C18.1042 14.3938 17.9083 14.2167 17.675 14.1C17.475 14 17.2333 13.8917 16.95 13.775C16.6667 13.6583 16.3417 13.5333 15.975 13.4L12.75 20.5Z" fill="url(#paint0_linear_47_410)"/>
<defs>
<linearGradient id="paint0_linear_47_410" x1="12" y1="2" x2="12" y2="22" gradientUnits="userSpaceOnUse">
<stop stop-color="#1D81C4"/>
<stop offset="1" stop-color="#2594BD"/>
</linearGradient>
</defs>
</svg>
