<svg width="24" height="24" viewBox="0 0 24 24" fill="none" xmlns="http://www.w3.org/2000/svg">
<path d="M8 18.75H16V17.25H8V18.75ZM8 15.75H16V14.25H8V15.75ZM12 11.9C13.0667 10.9333 13.9583 10.1167 14.675 9.45C15.3917 8.78333 15.75 8.03333 15.75 7.2C15.75 6.66818 15.558 6.21023 15.1739 5.82613C14.7898 5.44204 14.3318 5.25 13.8 5.25C13.3833 5.25 13.0417 5.32917 12.775 5.4875C12.5083 5.64583 12.25 5.88333 12 6.2C11.75 5.88333 11.4917 5.64583 11.225 5.4875C10.9583 5.32917 10.6167 5.25 10.2 5.25C9.66818 5.25 9.21023 5.44204 8.82613 5.82613C8.44204 6.21023 8.25 6.66818 8.25 7.2C8.25 8.03333 8.59583 8.77083 9.2875 9.4125C9.97917 10.0542 10.8833 10.8833 12 11.9ZM18.5 22H5.5C5.1 22 4.75 21.85 4.45 21.55C4.15 21.25 4 20.9 4 20.5V3.5C4 3.1 4.15 2.75 4.45 2.45C4.75 2.15 5.1 2 5.5 2H18.5C18.9 2 19.25 2.15 19.55 2.45C19.85 2.75 20 3.1 20 3.5V20.5C20 20.9 19.85 21.25 19.55 21.55C19.25 21.85 18.9 22 18.5 22ZM5.5 20.5H18.5V3.5H5.5V20.5Z" fill="url(#paint0_linear_49_484)"/>
<defs>
<linearGradient id="paint0_linear_49_484" x1="12" y1="2" x2="12" y2="22" gradientUnits="userSpaceOnUse">
<stop stop-color="#1D81C4"/>
<stop offset="1" stop-color="#2594BD"/>
</linearGradient>
</defs>
</svg>
