<svg width="24" height="24" viewBox="0 0 24 24" fill="none" xmlns="http://www.w3.org/2000/svg">
<path d="M13 21V19H15V21H13ZM11 19V14H13V19H11ZM19 16V12H21V16H19ZM17 12V10H19V12H17ZM5 14V12H7V14H5ZM3 12V10H5V12H3ZM12 5V3H14V5H12ZM4.25 7.75H7.75V4.25H4.25V7.75ZM3 9V3H9V9H3ZM4.25 19.75H7.75V16.25H4.25V19.75ZM3 21V15H9V21H3ZM16.25 7.75H19.75V4.25H16.25V7.75ZM15 9V3H21V9H15ZM17 21V18H15V16H19V19H21V21H17ZM13 14V12H17V14H13ZM9 14V12H7V10H13V12H11V14H9ZM10 9V5H12V7H14V9H10ZM5.25 6.75V5.25H6.75V6.75H5.25ZM5.25 18.75V17.25H6.75V18.75H5.25ZM17.25 6.75V5.25H18.75V6.75H17.25Z" fill="url(#paint0_linear_49_498)"/>
<defs>
<linearGradient id="paint0_linear_49_498" x1="12" y1="3" x2="12" y2="21" gradientUnits="userSpaceOnUse">
<stop stop-color="#1D81C4"/>
<stop offset="1" stop-color="#2594BD"/>
</linearGradient>
</defs>
</svg>
