<svg width="24" height="24" viewBox="0 0 24 24" fill="none" xmlns="http://www.w3.org/2000/svg">
<path d="M17.35 21L18.675 19.65L16.35 17.325L15 18.65C14.6667 18.9833 14.5042 19.375 14.5125 19.825C14.5208 20.275 14.6833 20.6667 15 21C15.3333 21.3167 15.725 21.4792 16.175 21.4875C16.625 21.4958 17.0167 21.3333 17.35 21ZM19.7 18.625L21.05 17.3C21.3833 16.9667 21.5458 16.575 21.5375 16.125C21.5292 15.675 21.3583 15.2833 21.025 14.95C20.6917 14.6167 20.306 14.45 19.868 14.45C19.43 14.45 19.0407 14.6167 18.7 14.95L17.375 16.3L19.7 18.625ZM18.4 22.05C17.7833 22.6667 17.0417 22.975 16.175 22.975C15.3083 22.975 14.5667 22.6667 13.95 22.05C13.3333 21.4333 13.025 20.6917 13.025 19.825C13.025 18.9583 13.3333 18.2167 13.95 17.6L17.65 13.9C18.2667 13.2833 19.0083 12.975 19.875 12.975C20.7417 12.975 21.4833 13.2833 22.1 13.9C22.7167 14.5167 23.025 15.2583 23.025 16.125C23.025 16.9917 22.7167 17.7333 22.1 18.35L18.4 22.05ZM4.5 21C4.0875 21 3.73438 20.8531 3.44063 20.5594C3.14688 20.2656 3 19.9125 3 19.5V4.5C3 4.0875 3.14688 3.73438 3.44063 3.44062C3.73438 3.14688 4.0875 3 4.5 3H9.625C9.70833 2.41667 9.975 1.9375 10.425 1.5625C10.875 1.1875 11.4 1 12 1C12.6 1 13.125 1.1875 13.575 1.5625C14.025 1.9375 14.2917 2.41667 14.375 3H19.5C19.9125 3 20.2656 3.14688 20.5594 3.44062C20.8531 3.73438 21 4.0875 21 4.5V11.6C20.75 11.5333 20.5 11.4917 20.25 11.475C20 11.4583 19.75 11.4667 19.5 11.5V4.5H4.5V19.5H11.525C11.5083 19.75 11.5125 20 11.5375 20.25C11.5625 20.5 11.6083 20.75 11.675 21H4.5ZM12 4.075C12.2333 4.075 12.4375 3.9875 12.6125 3.8125C12.7875 3.6375 12.875 3.43333 12.875 3.2C12.875 2.96667 12.7875 2.7625 12.6125 2.5875C12.4375 2.4125 12.2333 2.325 12 2.325C11.7667 2.325 11.5625 2.4125 11.3875 2.5875C11.2125 2.7625 11.125 2.96667 11.125 3.2C11.125 3.43333 11.2125 3.6375 11.3875 3.8125C11.5625 3.9875 11.7667 4.075 12 4.075ZM7 8.5V7H17V8.5H7ZM7 12.75V11.25H17V12.475C16.95 12.5083 16.8958 12.55 16.8375 12.6C16.7792 12.65 16.725 12.7 16.675 12.75H7ZM7 17V15.5H13.925L12.875 16.55C12.7917 16.6333 12.7208 16.7083 12.6625 16.775C12.6042 16.8417 12.5417 16.9167 12.475 17H7Z" fill="url(#paint0_linear_47_414)"/>
<defs>
<linearGradient id="paint0_linear_47_414" x1="13.0125" y1="1.00001" x2="13.0125" y2="22.975" gradientUnits="userSpaceOnUse">
<stop stop-color="#1D81C4"/>
<stop offset="1" stop-color="#2594BD"/>
</linearGradient>
</defs>
</svg>
