<svg width="24" height="24" viewBox="0 0 24 24" fill="none" xmlns="http://www.w3.org/2000/svg">
<path d="M17 22V20.5H19.5V19.75H18V18.25H19.5V17.5H17V16H20C20.2833 16 20.5208 16.0958 20.7125 16.2875C20.9042 16.4792 21 16.7167 21 17V18C21 18.2833 20.9042 18.5208 20.7125 18.7125C20.5208 18.9042 20.2833 19 20 19C20.2833 19 20.5208 19.0958 20.7125 19.2875C20.9042 19.4792 21 19.7167 21 20V21C21 21.2833 20.9042 21.5208 20.7125 21.7125C20.5208 21.9042 20.2833 22 20 22H17ZM17 15V12.25C17 11.9667 17.0958 11.7292 17.2875 11.5375C17.4792 11.3458 17.7167 11.25 18 11.25H19.5V10.5H17V9H20C20.2833 9 20.5208 9.09583 20.7125 9.2875C20.9042 9.47917 21 9.71667 21 10V11.75C21 12.0333 20.9042 12.2708 20.7125 12.4625C20.5208 12.6542 20.2833 12.75 20 12.75H18.5V13.5H21V15H17ZM18.5 8V3.5H17V2H20V8H18.5ZM3 18.775V17.275H14.775V18.775H3ZM3 12.7V11.2H14.775V12.7H3ZM3 6.625V5.125H14.775V6.625H3Z" fill="url(#paint0_linear_47_427)"/>
<defs>
<linearGradient id="paint0_linear_47_427" x1="12" y1="2" x2="12" y2="22" gradientUnits="userSpaceOnUse">
<stop stop-color="#1D81C4"/>
<stop offset="1" stop-color="#2594BD"/>
</linearGradient>
</defs>
</svg>
