<svg width="32" height="32" viewBox="0 0 32 32" fill="none" xmlns="http://www.w3.org/2000/svg">
<path d="M16 3.19995C8.93121 3.19995 3.20001 8.93115 3.20001 16C3.20001 18.4012 3.87451 20.64 5.02501 22.5604L3.3146 28.8L9.68751 27.127C11.5513 28.1867 13.7029 28.8 16 28.8C23.0688 28.8 28.8 23.0688 28.8 16C28.8 8.93115 23.0688 3.19995 16 3.19995ZM11.6188 10.0291C11.8268 10.0291 12.0405 10.0279 12.225 10.0375C12.4533 10.0428 12.7017 10.0595 12.9396 10.5854C13.2223 11.2104 13.8377 12.7785 13.9167 12.9375C13.9956 13.0964 14.0515 13.2836 13.9417 13.4916C13.8371 13.705 13.7828 13.8341 13.6292 14.0229C13.4702 14.2063 13.2961 14.4342 13.1521 14.5729C12.9932 14.7318 12.829 14.9061 13.0125 15.2229C13.196 15.5397 13.8331 16.5782 14.775 17.4166C15.9857 18.4982 17.0071 18.8306 17.325 18.9895C17.6429 19.1485 17.827 19.1237 18.0104 18.9104C18.1992 18.7024 18.8033 17.9887 19.0167 17.6708C19.2247 17.3529 19.437 17.4079 19.725 17.5125C20.0173 17.617 21.5759 18.3848 21.8938 18.5437C22.2116 18.7026 22.42 18.7813 22.5 18.9104C22.5821 19.0437 22.5822 19.6784 22.3188 20.4187C22.0553 21.1579 20.7615 21.8727 20.1813 21.9229C19.5957 21.9773 19.0491 22.1861 16.375 21.1333C13.1494 19.8629 11.1152 16.5591 10.9563 16.3458C10.7973 16.1378 9.6646 14.6281 9.6646 13.0708C9.6646 11.5081 10.4839 10.7428 10.7708 10.425C11.0631 10.1071 11.4054 10.0291 11.6188 10.0291Z" fill="url(#paint0_linear_30_724)"/>
<defs>
<linearGradient id="paint0_linear_30_724" x1="15.9554" y1="3.19995" x2="15.9554" y2="28.8" gradientUnits="userSpaceOnUse">
<stop stop-color="#41BD9A"/>
<stop offset="1" stop-color="#47B87A"/>
</linearGradient>
</defs>
</svg>
